<svg width="506" height="126" viewBox="0 0 506 126" fill="none" xmlns="http://www.w3.org/2000/svg">
<path d="M65.554 111.195C70.3738 108.386 73.765 102.683 73.6154 96.0294C73.2979 81.9795 54.0647 71.6267 50.6138 71.6267C47.1629 71.6267 27.9274 81.9795 27.6122 96.0294C27.4626 102.683 30.8538 108.384 35.6736 111.195C40.1828 113.82 45.8469 113.836 50.6138 109.96C55.3807 113.836 61.0448 113.822 65.554 111.195Z" fill="#1E1E1E"/>
<path d="M65.554 14.8049C70.3738 17.614 73.765 23.3172 73.6154 29.9706C73.2979 44.0205 54.0647 54.3733 50.6138 54.3733C47.1629 54.3733 27.9274 44.0205 27.6122 29.9706C27.4626 23.3172 30.8538 17.6163 35.6736 14.8049C40.1828 12.1799 45.8469 12.1638 50.6138 16.0404C55.3807 12.1638 61.0448 12.1776 65.554 14.8049Z" fill="#1E1E1E"/>
<path d="M1.84288 47.4842C4.65194 42.6644 10.3552 39.2733 17.0086 39.4228C31.0585 39.7403 41.4113 58.9735 41.4113 62.4245C41.4113 65.8754 31.0585 85.1109 17.0086 85.4261C10.3552 85.5756 4.65424 82.1845 1.84288 77.3647C-0.782134 72.8555 -0.798239 67.1914 3.07831 62.4245C-0.798239 57.6576 -0.784434 51.9934 1.84288 47.4842Z" fill="#1E1E1E"/>
<path d="M99.3837 47.4842C96.5746 42.6644 90.8714 39.2733 84.218 39.4228C70.1681 39.7403 59.8153 58.9735 59.8153 62.4245C59.8153 65.8754 70.1681 85.1109 84.218 85.4261C90.8714 85.5756 96.5723 82.1845 99.3837 77.3647C102.009 72.8555 102.025 67.1914 98.1483 62.4245C102.025 57.6576 102.011 51.9934 99.3837 47.4842Z" fill="#1E1E1E"/>
<path d="M165.087 101.08C160.348 101.08 155.939 100.21 151.86 98.4703C147.841 96.7307 144.332 94.3313 141.332 91.2719C138.393 88.1526 136.084 84.4934 134.404 80.2944C132.724 76.0953 131.884 71.4763 131.884 66.4374C131.884 61.4586 132.694 56.8696 134.314 52.6705C135.994 48.4115 138.333 44.7523 141.332 41.6929C144.332 38.5736 147.841 36.1742 151.86 34.4945C155.879 32.7549 160.288 31.8851 165.087 31.8851C169.826 31.8851 174.055 32.6949 177.774 34.3146C181.553 35.9342 184.733 38.0637 187.312 40.7032C189.892 43.2826 191.751 46.102 192.891 49.1613L183.353 53.6603C181.913 50.0611 179.604 47.1517 176.425 44.9322C173.305 42.6527 169.526 41.513 165.087 41.513C160.648 41.513 156.719 42.5627 153.3 44.6623C149.88 46.7618 147.211 49.6712 145.291 53.3903C143.432 57.1095 142.502 61.4586 142.502 66.4374C142.502 71.4163 143.432 75.7954 145.291 79.5745C147.211 83.2937 149.88 86.2031 153.3 88.3026C156.719 90.3421 160.648 91.3619 165.087 91.3619C169.526 91.3619 173.305 90.2522 176.425 88.0327C179.604 85.8131 181.913 82.9038 183.353 79.3046L192.891 83.8036C191.751 86.8029 189.892 89.6223 187.312 92.2617C184.733 94.9011 181.553 97.0307 177.774 98.6503C174.055 100.27 169.826 101.08 165.087 101.08ZM216.518 101.08C213.218 101.08 210.309 100.51 207.79 99.3701C205.33 98.1704 203.411 96.5508 202.031 94.5112C200.651 92.4117 199.961 89.9522 199.961 87.1329C199.961 84.4934 200.531 82.124 201.671 80.0244C202.871 77.9249 204.7 76.1553 207.16 74.7156C209.619 73.2759 212.709 72.2562 216.428 71.6563L233.344 68.8669V76.8751L218.407 79.4846C215.708 79.9644 213.728 80.8343 212.469 82.094C211.209 83.2937 210.579 84.8534 210.579 86.7729C210.579 88.6325 211.269 90.1622 212.649 91.3619C214.088 92.5017 215.918 93.0715 218.137 93.0715C220.897 93.0715 223.296 92.4717 225.336 91.2719C227.435 90.0722 229.055 88.4826 230.195 86.503C231.334 84.4634 231.904 82.2139 231.904 79.7545V67.2473C231.904 64.8478 231.004 62.8982 229.205 61.3986C227.465 59.8389 225.126 59.0591 222.186 59.0591C219.487 59.0591 217.118 59.7789 215.078 61.2186C213.098 62.5983 211.629 64.3979 210.669 66.6174L202.211 62.3883C203.111 59.9889 204.58 57.8893 206.62 56.0897C208.659 54.2302 211.029 52.7905 213.728 51.7707C216.488 50.7509 219.397 50.241 222.456 50.241C226.296 50.241 229.685 50.9609 232.624 52.4006C235.623 53.8402 237.933 55.8498 239.553 58.4292C241.232 60.9487 242.072 63.888 242.072 67.2473V100H232.354V91.182L234.424 91.4519C233.284 93.4315 231.814 95.1411 230.015 96.5808C228.275 98.0204 226.266 99.1302 223.986 99.91C221.767 100.69 219.277 101.08 216.518 101.08ZM274.137 100.54C269.038 100.54 265.079 99.1002 262.26 96.2208C259.441 93.3415 258.031 89.2924 258.031 84.0735V60.4988H249.483V51.3208H250.832C253.112 51.3208 254.882 50.661 256.141 49.3412C257.401 48.0215 258.031 46.2219 258.031 43.9424V40.1633H268.199V51.3208H279.266V60.4988H268.199V83.6236C268.199 85.3033 268.469 86.7429 269.008 87.9427C269.548 89.0824 270.418 89.9822 271.618 90.6421C272.818 91.2419 274.377 91.5419 276.297 91.5419C276.777 91.5419 277.317 91.5119 277.916 91.4519C278.516 91.3919 279.086 91.3319 279.626 91.2719V100C278.786 100.12 277.856 100.24 276.837 100.36C275.817 100.48 274.917 100.54 274.137 100.54ZM303.686 101.08C300.387 101.08 297.477 100.51 294.958 99.3701C292.498 98.1704 290.579 96.5508 289.199 94.5112C287.819 92.4117 287.13 89.9522 287.13 87.1329C287.13 84.4934 287.699 82.124 288.839 80.0244C290.039 77.9249 291.868 76.1553 294.328 74.7156C296.787 73.2759 299.877 72.2562 303.596 71.6563L320.512 68.8669V76.8751L305.575 79.4846C302.876 79.9644 300.896 80.8343 299.637 82.094C298.377 83.2937 297.747 84.8534 297.747 86.7729C297.747 88.6325 298.437 90.1622 299.817 91.3619C301.256 92.5017 303.086 93.0715 305.305 93.0715C308.065 93.0715 310.464 92.4717 312.504 91.2719C314.603 90.0722 316.223 88.4826 317.363 86.503C318.503 84.4634 319.072 82.2139 319.072 79.7545V67.2473C319.072 64.8478 318.173 62.8982 316.373 61.3986C314.633 59.8389 312.294 59.0591 309.355 59.0591C306.655 59.0591 304.286 59.7789 302.246 61.2186C300.267 62.5983 298.797 64.3979 297.837 66.6174L289.379 62.3883C290.279 59.9889 291.748 57.8893 293.788 56.0897C295.828 54.2302 298.197 52.7905 300.896 51.7707C303.656 50.7509 306.565 50.241 309.625 50.241C313.464 50.241 316.853 50.9609 319.792 52.4006C322.792 53.8402 325.101 55.8498 326.721 58.4292C328.4 60.9487 329.24 63.888 329.24 67.2473V100H319.522V91.182L321.592 91.4519C320.452 93.4315 318.982 95.1411 317.183 96.5808C315.443 98.0204 313.434 99.1302 311.154 99.91C308.935 100.69 306.445 101.08 303.686 101.08ZM341.129 100V31.8851H351.297V100H341.129ZM367.503 119.886C366.304 119.886 365.104 119.766 363.904 119.526C362.765 119.346 361.715 119.046 360.755 118.626V109.898C361.475 110.078 362.345 110.228 363.364 110.348C364.384 110.528 365.374 110.618 366.334 110.618C369.153 110.618 371.223 109.988 372.542 108.728C373.922 107.528 375.152 105.639 376.232 103.059L379.471 95.681L379.291 104.229L358.236 51.3208H369.123L384.69 91.9018H381L396.477 51.3208H407.455L385.949 105.309C384.81 108.188 383.37 110.708 381.63 112.867C379.951 115.087 377.941 116.796 375.602 117.996C373.322 119.256 370.623 119.886 367.503 119.886ZM432.409 101.08C427.43 101.08 423.051 99.85 419.272 97.3906C415.553 94.9311 412.944 91.6319 411.444 87.4928L419.272 83.8036C420.592 86.563 422.392 88.7525 424.671 90.3721C427.01 91.9918 429.59 92.8016 432.409 92.8016C434.809 92.8016 436.758 92.2617 438.258 91.182C439.758 90.1022 440.507 88.6325 440.507 86.7729C440.507 85.5732 440.178 84.6134 439.518 83.8936C438.858 83.1137 438.018 82.4839 436.998 82.004C436.038 81.5241 435.049 81.1642 434.029 80.9242L426.381 78.7647C422.182 77.565 419.032 75.7654 416.933 73.3659C414.893 70.9065 413.873 68.0571 413.873 64.8178C413.873 61.8785 414.623 59.329 416.123 57.1695C417.623 54.95 419.692 53.2404 422.332 52.0406C424.971 50.8409 427.94 50.241 431.24 50.241C435.679 50.241 439.638 51.3508 443.117 53.5703C446.596 55.7298 449.056 58.7592 450.495 62.6583L442.667 66.3475C441.707 64.008 440.178 62.1484 438.078 60.7687C436.038 59.389 433.729 58.6992 431.15 58.6992C428.93 58.6992 427.16 59.239 425.841 60.3188C424.521 61.3386 423.861 62.6883 423.861 64.3679C423.861 65.5077 424.161 66.4674 424.761 67.2473C425.361 67.9671 426.141 68.567 427.1 69.0469C428.06 69.4668 429.05 69.8267 430.07 70.1266L437.988 72.4661C442.007 73.6059 445.096 75.4055 447.256 77.8649C449.416 80.2644 450.495 83.1437 450.495 86.503C450.495 89.3824 449.715 91.9318 448.156 94.1513C446.656 96.3108 444.557 98.0204 441.857 99.2802C439.158 100.48 436.008 101.08 432.409 101.08ZM460.458 100V31.8851H470.625V77.505L466.666 76.5152L491.051 51.3208H503.738L485.382 70.8465L504.548 100H492.851L475.754 74.1757L481.783 73.3659L467.386 88.6625L470.625 81.914V100H460.458Z" fill="#1E1E1E"/>
</svg>
