<svg width="255" height="62" viewBox="0 0 255 62" fill="none" xmlns="http://www.w3.org/2000/svg">
<g filter="url(#filter0_d_406_1170)">
<path d="M1.53906 19.1555L1.53906 40.7878C1.53906 50.5489 9.45205 58.4619 19.2132 58.4619H40.8455C50.6067 58.4619 58.5197 50.5489 58.5197 40.7878V19.1555C58.5197 9.39429 50.6067 1.4813 40.8455 1.4813H19.2132C9.45205 1.4813 1.53906 9.39429 1.53906 19.1555Z" fill="white"/>
</g>
<g filter="url(#filter1_f_406_1170)">
<path d="M44.056 24.0415C44.7293 23.701 45.003 22.8756 44.6123 22.2302C42.7238 19.1109 39.9378 16.6179 36.6066 15.09C32.8603 13.3716 28.6464 12.9756 24.6555 13.9668C20.6647 14.958 17.1335 17.2776 14.6406 20.5456C12.1477 23.8136 10.8409 27.8362 10.9344 31.9541C11.0279 36.0721 12.5161 40.0412 15.1552 43.211C17.7943 46.381 21.4277 48.5636 25.4601 49.4015C29.4924 50.2393 33.6847 49.6826 37.3498 47.8226C40.6083 46.1689 43.2783 43.5721 45.0235 40.3841C45.3856 39.7226 45.078 38.9101 44.392 38.5967C43.703 38.2819 42.8947 38.5904 42.5218 39.2498C41.0383 41.8729 38.811 44.0098 36.1067 45.3822C32.9932 46.9624 29.432 47.4353 26.0063 46.7236C22.5807 46.0118 19.4941 44.1576 17.2523 41.4647C15.0103 38.7719 13.746 35.4001 13.6666 31.9019C13.5872 28.4036 14.6973 24.9866 16.815 22.2102C18.9327 19.4341 21.9326 17.4635 25.3229 16.6215C28.7132 15.7795 32.2929 16.1159 35.4755 17.5756C38.244 18.8455 40.569 20.8999 42.1707 23.4696C42.569 24.1086 43.3841 24.381 44.056 24.0415Z" fill="#D9D9D9"/>
</g>
<path d="M41.9224 29.5994C41.9224 30.8866 42.9659 31.9302 44.2532 31.9302C45.5404 31.9302 46.584 30.8866 46.584 29.5994C46.584 28.3121 45.5404 27.2686 44.2532 27.2686C42.9659 27.2686 41.9224 28.3121 41.9224 29.5994Z" fill="#FF611A"/>
<path d="M44.4431 22.0033C45.1153 21.6628 45.3887 20.8385 44.9987 20.1937C43.1185 17.0859 40.3417 14.6044 37.019 13.0863C33.2811 11.3785 29.0742 10.991 25.0873 11.9872C21.1005 12.9834 17.5702 15.3042 15.075 18.5694C12.5798 21.8347 11.2677 25.8505 11.3536 29.959C11.4395 34.0676 12.9184 38.0251 15.5479 41.1831C18.1774 44.3411 21.8016 46.5123 25.8267 47.341C29.8516 48.1696 34.0387 47.6065 37.7019 45.744C40.9584 44.0883 43.629 41.493 45.3774 38.3093C45.7402 37.6487 45.4327 36.8367 44.7467 36.5245C44.0608 36.2125 43.257 36.5193 42.8854 37.1748C41.3993 39.7976 39.17 41.9362 36.465 43.3116C33.3531 44.8937 29.7962 45.372 26.3768 44.668C22.9576 43.9642 19.8788 42.1197 17.645 39.437C15.4113 36.7542 14.1549 33.3922 14.0819 29.9019C14.0089 26.4117 15.1236 23.0002 17.2433 20.2263C19.363 17.4527 22.3619 15.481 25.7488 14.6347C29.1357 13.7885 32.7096 14.1177 35.8848 15.5683C38.645 16.8294 40.9616 18.873 42.5562 21.4313C42.9548 22.0708 43.7708 22.3437 44.4431 22.0033Z" fill="black"/>
<path d="M90.5732 49.2865C88.3045 49.2865 86.1937 48.87 84.2409 48.0372C82.3168 47.2044 80.6368 46.0557 79.2009 44.5911C77.7937 43.0977 76.6881 41.3459 75.884 39.3357C75.0799 37.3254 74.6778 35.1141 74.6778 32.7018C74.6778 30.3182 75.0655 28.1213 75.8409 26.1111C76.645 24.0721 77.765 22.3203 79.2009 20.8557C80.6368 19.3624 82.3168 18.2136 84.2409 17.4095C86.165 16.5767 88.2758 16.1603 90.5732 16.1603C92.8419 16.1603 94.8665 16.548 96.6471 17.3234C98.4563 18.0988 99.9783 19.1182 101.213 20.3818C102.448 21.6167 103.338 22.9665 103.884 24.4311L99.3178 26.5849C98.6286 24.8618 97.523 23.469 96.0009 22.4065C94.5076 21.3152 92.6983 20.7695 90.5732 20.7695C88.4481 20.7695 86.5671 21.2721 84.9301 22.2772C83.2932 23.2824 82.0153 24.6752 81.0963 26.4557C80.206 28.2362 79.7609 30.3182 79.7609 32.7018C79.7609 35.0854 80.206 37.1818 81.0963 38.9911C82.0153 40.7716 83.2932 42.1644 84.9301 43.1695C86.5671 44.1459 88.4481 44.6341 90.5732 44.6341C92.6983 44.6341 94.5076 44.1029 96.0009 43.0403C97.523 41.9777 98.6286 40.5849 99.3178 38.8618L103.884 41.0157C103.338 42.4516 102.448 43.8013 101.213 45.0649C99.9783 46.3285 98.4563 47.348 96.6471 48.1234C94.8665 48.8988 92.8419 49.2865 90.5732 49.2865ZM115.195 49.2865C113.616 49.2865 112.223 49.0136 111.017 48.468C109.839 47.8936 108.92 47.1182 108.26 46.1418C107.599 45.1367 107.269 43.9593 107.269 42.6095C107.269 41.3459 107.542 40.2116 108.087 39.2065C108.662 38.2013 109.538 37.3541 110.715 36.6649C111.892 35.9757 113.371 35.4875 115.152 35.2003L123.25 33.8649V37.6988L116.1 38.948C114.807 39.1777 113.86 39.5941 113.257 40.1972C112.653 40.7716 112.352 41.5182 112.352 42.4372C112.352 43.3275 112.682 44.0598 113.343 44.6341C114.032 45.1798 114.908 45.4526 115.97 45.4526C117.291 45.4526 118.44 45.1654 119.417 44.5911C120.422 44.0167 121.197 43.2557 121.743 42.308C122.288 41.3316 122.561 40.2547 122.561 39.0772V33.0895C122.561 31.9408 122.13 31.0075 121.269 30.2895C120.436 29.5429 119.316 29.1695 117.909 29.1695C116.617 29.1695 115.482 29.5141 114.506 30.2034C113.558 30.8639 112.855 31.7254 112.395 32.788L108.346 30.7634C108.777 29.6147 109.48 28.6095 110.457 27.748C111.433 26.8577 112.567 26.1685 113.86 25.6803C115.181 25.1921 116.573 24.948 118.038 24.948C119.876 24.948 121.499 25.2926 122.906 25.9818C124.342 26.6711 125.447 27.6331 126.223 28.868C127.027 30.0741 127.429 31.4813 127.429 33.0895V48.7695H122.777V44.548L123.767 44.6772C123.222 45.6249 122.518 46.4434 121.657 47.1326C120.824 47.8218 119.862 48.3531 118.77 48.7265C117.708 49.0998 116.516 49.2865 115.195 49.2865ZM142.78 49.028C140.339 49.028 138.443 48.3388 137.094 46.9603C135.744 45.5818 135.069 43.6434 135.069 41.1449V29.8588H130.977V25.4649H131.623C132.714 25.4649 133.561 25.149 134.164 24.5172C134.767 23.8854 135.069 23.0239 135.069 21.9326V20.1234H139.937V25.4649H145.235V29.8588H139.937V40.9295C139.937 41.7336 140.066 42.4229 140.324 42.9972C140.583 43.5429 140.999 43.9736 141.574 44.2895C142.148 44.5767 142.895 44.7203 143.814 44.7203C144.043 44.7203 144.302 44.7059 144.589 44.6772C144.876 44.6485 145.149 44.6198 145.407 44.5911V48.7695C145.005 48.827 144.56 48.8844 144.072 48.9418C143.584 48.9993 143.153 49.028 142.78 49.028ZM156.926 49.2865C155.346 49.2865 153.953 49.0136 152.747 48.468C151.57 47.8936 150.651 47.1182 149.99 46.1418C149.33 45.1367 149 43.9593 149 42.6095C149 41.3459 149.272 40.2116 149.818 39.2065C150.392 38.2013 151.268 37.3541 152.446 36.6649C153.623 35.9757 155.102 35.4875 156.883 35.2003L164.981 33.8649V37.6988L157.83 38.948C156.538 39.1777 155.59 39.5941 154.987 40.1972C154.384 40.7716 154.083 41.5182 154.083 42.4372C154.083 43.3275 154.413 44.0598 155.073 44.6341C155.763 45.1798 156.639 45.4526 157.701 45.4526C159.022 45.4526 160.171 45.1654 161.147 44.5911C162.152 44.0167 162.928 43.2557 163.473 42.308C164.019 41.3316 164.292 40.2547 164.292 39.0772V33.0895C164.292 31.9408 163.861 31.0075 163 30.2895C162.167 29.5429 161.047 29.1695 159.64 29.1695C158.347 29.1695 157.213 29.5141 156.237 30.2034C155.289 30.8639 154.585 31.7254 154.126 32.788L150.077 30.7634C150.507 29.6147 151.211 28.6095 152.187 27.748C153.164 26.8577 154.298 26.1685 155.59 25.6803C156.911 25.1921 158.304 24.948 159.769 24.948C161.607 24.948 163.229 25.2926 164.637 25.9818C166.072 26.6711 167.178 27.6331 167.953 28.868C168.758 30.0741 169.16 31.4813 169.16 33.0895V48.7695H164.507V44.548L165.498 44.6772C164.952 45.6249 164.249 46.4434 163.387 47.1326C162.555 47.8218 161.592 48.3531 160.501 48.7265C159.439 49.0998 158.247 49.2865 156.926 49.2865ZM174.851 48.7695V16.1603H179.719V48.7695H174.851ZM187.478 58.2465C186.903 58.2465 186.329 58.189 185.755 58.0741C185.209 57.988 184.706 57.8444 184.247 57.6434V53.4649C184.592 53.5511 185.008 53.6229 185.496 53.6803C185.984 53.7665 186.458 53.8095 186.918 53.8095C188.268 53.8095 189.258 53.508 189.89 52.9049C190.551 52.3306 191.139 51.4403 191.656 50.2341L193.207 46.7018L193.121 50.7941L183.041 25.4649H188.253L195.705 44.8926H193.939L201.349 25.4649H206.604L196.309 51.3111C195.763 52.6895 195.074 53.8957 194.241 54.9295C193.437 55.9921 192.475 56.8106 191.355 57.3849C190.263 57.9593 188.971 58.2465 187.478 58.2465ZM218.551 49.2865C216.167 49.2865 214.071 48.6977 212.261 47.5203C210.481 46.3429 209.232 44.7634 208.514 42.7818L212.261 41.0157C212.893 42.3367 213.755 43.3849 214.846 44.1603C215.966 44.9357 217.201 45.3234 218.551 45.3234C219.699 45.3234 220.633 45.0649 221.351 44.548C222.069 44.0311 222.428 43.3275 222.428 42.4372C222.428 41.8629 222.27 41.4034 221.954 41.0588C221.638 40.6854 221.236 40.3839 220.748 40.1541C220.288 39.9244 219.814 39.7521 219.326 39.6372L215.665 38.6034C213.654 38.029 212.147 37.1675 211.141 36.0188C210.165 34.8413 209.677 33.4772 209.677 31.9265C209.677 30.5193 210.036 29.2988 210.754 28.2649C211.472 27.2024 212.463 26.3839 213.726 25.8095C214.99 25.2352 216.411 24.948 217.991 24.948C220.116 24.948 222.011 25.4793 223.677 26.5418C225.343 27.5757 226.52 29.0259 227.209 30.8926L223.461 32.6588C223.002 31.5388 222.27 30.6485 221.265 29.988C220.288 29.3275 219.183 28.9972 217.948 28.9972C216.885 28.9972 216.038 29.2557 215.406 29.7726C214.774 30.2608 214.458 30.907 214.458 31.7111C214.458 32.2567 214.602 32.7162 214.889 33.0895C215.176 33.4341 215.55 33.7213 216.009 33.9511C216.469 34.1521 216.943 34.3244 217.431 34.468L221.221 35.588C223.146 36.1336 224.625 36.9952 225.658 38.1726C226.692 39.3213 227.209 40.6998 227.209 42.308C227.209 43.6865 226.836 44.907 226.089 45.9695C225.371 47.0034 224.366 47.8218 223.074 48.4249C221.781 48.9993 220.274 49.2865 218.551 49.2865ZM231.979 48.7695V16.1603H236.846V38.0003L234.951 37.5265L246.625 25.4649H252.699L243.911 34.8126L253.086 48.7695H247.486L239.302 36.4065L242.188 36.0188L235.296 43.3418L236.846 40.1111V48.7695H231.979Z" fill="white"/>
<defs>
<filter id="filter0_d_406_1170" x="0.64961" y="1.48145" width="58.7594" height="58.7594" filterUnits="userSpaceOnUse" color-interpolation-filters="sRGB">
<feFlood flood-opacity="0" result="BackgroundImageFix"/>
<feColorMatrix in="SourceAlpha" type="matrix" values="0 0 0 0 0 0 0 0 0 0 0 0 0 0 0 0 0 0 127 0" result="hardAlpha"/>
<feOffset dy="0.889454"/>
<feGaussianBlur stdDeviation="0.444726"/>
<feComposite in2="hardAlpha" operator="out"/>
<feColorMatrix type="matrix" values="0 0 0 0 0 0 0 0 0 0 0 0 0 0 0 0 0 0 0.25 0"/>
<feBlend mode="normal" in2="BackgroundImageFix" result="effect1_dropShadow_406_1170"/>
<feBlend mode="normal" in="SourceGraphic" in2="effect1_dropShadow_406_1170" result="shape"/>
</filter>
<filter id="filter1_f_406_1170" x="10.2404" y="12.7433" width="35.6247" height="37.7273" filterUnits="userSpaceOnUse" color-interpolation-filters="sRGB">
<feFlood flood-opacity="0" result="BackgroundImageFix"/>
<feBlend mode="normal" in="SourceGraphic" in2="BackgroundImageFix" result="shape"/>
<feGaussianBlur stdDeviation="0.344663" result="effect1_foregroundBlur_406_1170"/>
</filter>
</defs>
</svg>
