<svg width="49" height="50" viewBox="0 0 49 50" fill="none" xmlns="http://www.w3.org/2000/svg">
<g clip-path="url(#clip0_406_1177)">
<g filter="url(#filter0_d_406_1177)">
<path d="M1.73047 15.3244L1.73047 32.6302C1.73047 40.4391 8.06086 46.7695 15.8698 46.7695H33.1756C40.9846 46.7695 47.315 40.4391 47.315 32.6302V15.3244C47.315 7.51543 40.9846 1.18504 33.1756 1.18504H15.8698C8.06086 1.18504 1.73047 7.51543 1.73047 15.3244Z" fill="white"/>
</g>
<g filter="url(#filter1_f_406_1177)">
<path d="M35.7452 19.2332C36.2839 18.9608 36.5028 18.3005 36.1902 17.7842C34.6794 15.2887 32.4506 13.2944 29.7857 12.072C26.7886 10.6973 23.4175 10.3805 20.2248 11.1734C17.0322 11.9664 14.2072 13.8221 12.2129 16.4365C10.2185 19.0509 9.1731 22.269 9.24789 25.5633C9.32269 28.8577 10.5133 32.0329 12.6245 34.5688C14.7358 37.1048 17.6425 38.8509 20.8685 39.5212C24.0943 40.1915 27.4482 39.746 30.3802 38.258C32.987 36.9351 35.123 34.8577 36.5192 32.3073C36.8089 31.778 36.5628 31.1281 36.014 30.8774C35.4628 30.6256 34.8162 30.8723 34.5178 31.3998C33.331 33.4983 31.5492 35.2078 29.3858 36.3058C26.8949 37.5699 24.046 37.9483 21.3054 37.3789C18.565 36.8094 16.0957 35.3261 14.3022 33.1718C12.5086 31.0176 11.4972 28.3201 11.4337 25.5216C11.3701 22.7229 12.2582 19.9892 13.9524 17.7682C15.6466 15.5473 18.0465 13.9708 20.7587 13.2972C23.4709 12.6236 26.3347 12.8928 28.8808 14.0605C31.0956 15.0764 32.9556 16.72 34.237 18.7757C34.5556 19.2868 35.2077 19.5048 35.7452 19.2332Z" fill="#D9D9D9"/>
</g>
<path d="M34.0383 23.6791C34.0383 24.7089 34.8731 25.5437 35.9029 25.5437C36.9327 25.5437 37.7676 24.7089 37.7676 23.6791C37.7676 22.6493 36.9327 21.8145 35.9029 21.8145C34.8731 21.8145 34.0383 22.6493 34.0383 23.6791Z" fill="#FF611A"/>
<path d="M36.0549 17.6028C36.5926 17.3304 36.8113 16.671 36.4993 16.1552C34.9952 13.6689 32.7738 11.6837 30.1156 10.4692C27.1253 9.10301 23.7598 8.79299 20.5702 9.58995C17.3808 10.3869 14.5566 12.2436 12.5604 14.8557C10.5642 17.4679 9.51452 20.6806 9.58325 23.9674C9.65199 27.2543 10.8351 30.4203 12.9387 32.9467C15.0423 35.4731 17.9417 37.2101 21.1617 37.873C24.3817 38.5359 27.7313 38.0854 30.6619 36.5954C33.2671 35.2709 35.4036 33.1946 36.8023 30.6476C37.0926 30.1191 36.8465 29.4695 36.2977 29.2198C35.749 28.9702 35.106 29.2156 34.8087 29.74C33.6198 31.8383 31.8364 33.5491 29.6724 34.6495C27.1829 35.9152 24.3374 36.2978 21.6018 35.7346C18.8665 35.1716 16.4034 33.696 14.6164 31.5498C12.8294 29.4036 11.8243 26.714 11.7659 23.9217C11.7075 21.1296 12.5993 18.4003 14.295 16.1813C15.9908 13.9623 18.3899 12.385 21.0994 11.708C23.809 11.031 26.6681 11.2943 29.2082 12.4549C31.4164 13.4637 33.2697 15.0986 34.5454 17.1452C34.8642 17.6568 35.517 17.8752 36.0549 17.6028Z" fill="black"/>
</g>
<defs>
<filter id="filter0_d_406_1177" x="0.841016" y="1.18457" width="47.3629" height="47.3639" filterUnits="userSpaceOnUse" color-interpolation-filters="sRGB">
<feFlood flood-opacity="0" result="BackgroundImageFix"/>
<feColorMatrix in="SourceAlpha" type="matrix" values="0 0 0 0 0 0 0 0 0 0 0 0 0 0 0 0 0 0 127 0" result="hardAlpha"/>
<feOffset dy="0.889454"/>
<feGaussianBlur stdDeviation="0.444726"/>
<feComposite in2="hardAlpha" operator="out"/>
<feColorMatrix type="matrix" values="0 0 0 0 0 0 0 0 0 0 0 0 0 0 0 0 0 0 0.25 0"/>
<feBlend mode="normal" in2="BackgroundImageFix" result="effect1_dropShadow_406_1177"/>
<feBlend mode="normal" in="SourceGraphic" in2="effect1_dropShadow_406_1177" result="shape"/>
</filter>
<filter id="filter1_f_406_1177" x="8.55481" y="10.0568" width="28.7771" height="30.4578" filterUnits="userSpaceOnUse" color-interpolation-filters="sRGB">
<feFlood flood-opacity="0" result="BackgroundImageFix"/>
<feBlend mode="normal" in="SourceGraphic" in2="BackgroundImageFix" result="shape"/>
<feGaussianBlur stdDeviation="0.344663" result="effect1_foregroundBlur_406_1177"/>
</filter>
<clipPath id="clip0_406_1177">
<rect width="48" height="49.2308" fill="white" transform="translate(0.5)"/>
</clipPath>
</defs>
</svg>
