<svg width="19" height="20" viewBox="0 0 19 20" fill="none" xmlns="http://www.w3.org/2000/svg">
<path d="M11.9483 18.7445C12.8271 18.2322 13.4454 17.1922 13.4181 15.9788C13.3602 13.4167 9.85336 11.5287 9.22414 11.5287C8.59492 11.5287 5.08763 13.4167 5.03016 15.9788C5.0029 17.1922 5.62121 18.2318 6.50003 18.7445C7.32221 19.2232 8.35497 19.2261 9.22414 18.5192C10.0933 19.2261 11.1261 19.2236 11.9483 18.7445Z" fill="#373737"/>
<path d="M11.9483 1.16639C12.8271 1.67866 13.4454 2.71872 13.4181 3.93205C13.3602 6.49422 9.85336 8.38218 9.22414 8.38218C8.59492 8.38218 5.08763 6.49422 5.03016 3.93205C5.0029 2.71872 5.62121 1.67908 6.50003 1.16639C7.32221 0.68769 8.35497 0.684754 9.22414 1.39169C10.0933 0.684754 11.1261 0.687271 11.9483 1.16639Z" fill="#373737"/>
<path d="M0.334066 7.1261C0.846253 6.24715 1.88615 5.62874 3.09929 5.65601C5.66106 5.71391 7.54873 9.22132 7.54873 9.85064C7.54873 10.48 5.66106 13.9878 3.09929 14.0453C1.88615 14.0725 0.846672 13.4541 0.334066 12.5752C-0.144563 11.7529 -0.147499 10.7199 0.559327 9.85064C-0.147499 8.98134 -0.144982 7.94842 0.334066 7.1261Z" fill="#373737"/>
<path d="M18.123 7.12586C17.6108 6.24691 16.5709 5.6285 15.3577 5.65577C12.796 5.71367 10.9083 9.22108 10.9083 9.8504C10.9083 10.4797 12.796 13.9876 15.3577 14.045C16.5709 14.0723 17.6104 13.4539 18.123 12.5749C18.6016 11.7526 18.6045 10.7197 17.8977 9.8504C18.6045 8.9811 18.602 7.94817 18.123 7.12586Z" fill="#373737"/>
</svg>
