<svg width="37" height="38" viewBox="0 0 37 38" fill="none" xmlns="http://www.w3.org/2000/svg">
<circle cx="13.2235" cy="13.2235" r="13.2235" transform="matrix(-0.562184 0.827012 0.827012 0.562184 14.8691 0.861328)" fill="black"/>
<path fill-rule="evenodd" clip-rule="evenodd" d="M24.8836 22.974C22.7953 26.591 18.1702 27.8303 14.5532 25.742C10.9362 23.6538 9.69697 19.0287 11.7852 15.4117C13.8735 11.7947 18.4986 10.5554 22.1156 12.6437C25.7326 14.732 26.9718 19.357 24.8836 22.974ZM19.9517 24.5115C20.0587 24.8615 19.862 25.2356 19.5026 25.3043C18.8833 25.4226 18.248 25.445 17.6193 25.3694C16.7709 25.2675 15.953 24.9895 15.2182 24.5532C14.4834 24.1169 13.8479 23.532 13.3522 22.8358C12.9849 22.32 12.7005 21.7515 12.5079 21.1511C12.3961 20.8027 12.6305 20.4509 12.9889 20.3773L14.429 20.0817C14.5485 20.0572 14.6646 20.1344 14.696 20.2522C14.8126 20.6889 15.0066 21.1017 15.2694 21.4708C15.575 21.9 15.9668 22.2606 16.4198 22.5296C16.8728 22.7985 17.377 22.9699 17.9 23.0328C18.3499 23.0868 18.8052 23.0595 19.2444 22.9528C19.3629 22.924 19.4862 22.989 19.5219 23.1057L19.9517 24.5115ZM12.492 17.0651C12.3637 17.4077 12.5811 17.7703 12.9356 17.8609L14.3599 18.2248C14.4781 18.255 14.5977 18.1835 14.6348 18.0673C14.7654 17.6575 14.9651 17.2725 15.2257 16.929C15.5309 16.5269 15.9135 16.1899 16.351 15.9379C16.7884 15.6859 17.2719 15.524 17.7729 15.4618C18.2007 15.4086 18.634 15.4291 19.054 15.5217C19.1731 15.548 19.295 15.4804 19.3282 15.363L19.728 13.9483C19.8275 13.5962 19.6229 13.2263 19.2621 13.1653C18.6752 13.0661 18.0758 13.0526 17.4828 13.1263C16.6701 13.2272 15.8859 13.4898 15.1763 13.8986C14.4666 14.3073 13.846 14.854 13.351 15.5063C12.9897 15.9823 12.7006 16.5076 12.492 17.0651ZM22.0957 15.3165C22.3524 15.0558 22.7751 15.0505 23.0066 15.3339C23.3833 15.7948 23.6916 16.309 23.921 16.8608C24.2354 17.6169 24.3953 18.4284 24.3913 19.2473C24.3872 20.0662 24.2193 20.876 23.8974 21.629C23.6625 22.1785 23.3491 22.6896 22.9679 23.1467C22.7336 23.4278 22.311 23.4183 22.0569 23.1551L21.0358 22.0974C20.9511 22.0097 20.954 21.8703 21.0367 21.7806C21.3281 21.4644 21.5639 21.1003 21.7334 20.7039C21.9318 20.2397 22.0353 19.7404 22.0378 19.2356C22.0403 18.7308 21.9418 18.2305 21.7479 17.7644C21.5824 17.3663 21.3503 16.9999 21.062 16.6808C20.9802 16.5903 20.9786 16.4509 21.0642 16.364L22.0957 15.3165ZM17.7766 20.1597C18.3102 20.4678 18.9926 20.285 19.3007 19.7513C19.6088 19.2176 19.426 18.5353 18.8923 18.2272C18.3587 17.919 17.6763 18.1019 17.3682 18.6355C17.0601 19.1692 17.2429 19.8516 17.7766 20.1597Z" fill="white"/>
<path d="M5.02148 18.3794L5.01686 19.6591L16.534 19.7007C16.8874 19.702 17.1749 19.4165 17.1762 19.0631V19.0631C17.1774 18.7098 16.892 18.4223 16.5386 18.421L5.02148 18.3794Z" fill="white"/>
<path d="M18.5078 31.1433L18.5078 32.423L6.9906 32.423C6.63722 32.423 6.35075 32.1365 6.35075 31.7832V31.7832C6.35075 31.4298 6.63722 31.1433 6.9906 31.1433L18.5078 31.1433Z" fill="black"/>
</svg>
