<svg width="33" height="33" viewBox="0 0 33 33" fill="none" xmlns="http://www.w3.org/2000/svg">
<circle cx="16.152" cy="16.152" r="11.5685" transform="rotate(-35.847 16.152 16.152)" fill="black"/>
<mask id="mask0_329_1176" style="mask-type:alpha" maskUnits="userSpaceOnUse" x="4" y="4" width="24" height="24">
<circle cx="16.152" cy="16.152" r="11.5685" transform="rotate(-35.847 16.152 16.152)" fill="black"/>
</mask>
<g mask="url(#mask0_329_1176)">
<path d="M15.4961 3.31494L16.8458 3.32803L16.7492 13.2882C16.7456 13.6609 16.4405 13.9601 16.0678 13.9565V13.9565C15.6951 13.9529 15.3959 13.6478 15.3995 13.2751L15.4961 3.31494Z" fill="#F5F8E9"/>
<path d="M20.0039 17.3567C19.9421 19.5799 18.0898 21.332 15.8667 21.2702C13.6436 21.2084 11.8914 19.3561 11.9532 17.133C11.9822 16.0919 12.4038 15.1541 13.0723 14.4575C13.6707 13.7073 14.5084 12.2914 15.0462 11.0827C15.3258 10.4541 15.431 9.76782 15.4502 9.08014L15.5084 6.98404C15.5173 6.66471 15.7833 6.41304 16.1027 6.42191L16.2042 6.42473C16.5235 6.43361 16.7752 6.69967 16.7663 7.019L16.7081 9.1151C16.689 9.80278 16.7534 10.4959 17.0239 11.1284C17.5428 12.3417 18.4169 13.7583 19.0352 14.6232C19.6639 15.3559 20.0328 16.3156 20.0039 17.3567Z" fill="#F5F8E9"/>
</g>
</svg>
